<svg xmlns="http://www.w3.org/2000/svg" xmlns:xlink="http://www.w3.org/1999/xlink" width="600" zoomAndPan="magnify" viewBox="0 0 450 337.499995" height="450" preserveAspectRatio="xMidYMid meet" version="1.0"><defs><clipPath id="0c4c784b86"><path d="M 12 41 L 346 41 L 346 268 L 12 268 Z M 12 41 " clip-rule="nonzero"/></clipPath><clipPath id="41ff6232b8"><path d="M 17 137 L 98 137 L 98 272.601562 L 17 272.601562 Z M 17 137 " clip-rule="nonzero"/></clipPath><clipPath id="f57a582f70"><path d="M 221.234375 138.917969 L 419.316406 138.917969 L 419.316406 337 L 221.234375 337 Z M 221.234375 138.917969 " clip-rule="nonzero"/></clipPath><clipPath id="a44c0f1efd"><path d="M 320.277344 138.917969 C 265.578125 138.917969 221.234375 183.261719 221.234375 237.960938 C 221.234375 292.660156 265.578125 337 320.277344 337 C 374.976562 337 419.316406 292.660156 419.316406 237.960938 C 419.316406 183.261719 374.976562 138.917969 320.277344 138.917969 " clip-rule="nonzero"/></clipPath><clipPath id="9453ef39c7"><path d="M 209.53125 80.480469 L 437 80.480469 L 437 281.183594 L 209.53125 281.183594 Z M 209.53125 80.480469 " clip-rule="nonzero"/></clipPath></defs><g clip-path="url(#0c4c784b86)"><path fill="#c02e09" d="M 292.363281 53.222656 C 292.363281 53.222656 267.449219 22.472656 202.507812 61.734375 C 202.507812 61.734375 171.550781 81.699219 161.203125 101.039062 C 161.203125 101.039062 118.820312 85.128906 73.953125 90.75 C 73.953125 90.75 32.109375 101.039062 23.417969 123.773438 L 11.703125 149.148438 L 85.957031 267.0625 C 85.957031 267.0625 146.882812 223.789062 207.515625 221.515625 C 207.515625 221.515625 252.589844 176.632812 344.722656 189.652344 L 345.671875 176.179688 C 345.671875 176.179688 313.96875 89.59375 292.363281 53.222656 Z M 292.363281 53.222656 " fill-opacity="1" fill-rule="nonzero"/></g><path fill="#ffffff" d="M 199.488281 222.632812 C 200.933594 220.566406 202.878906 220.691406 204.785156 221.023438 C 210.082031 221.929688 214.59375 221.515625 218.691406 217.054688 C 227.132812 207.878906 237.480469 200.976562 248.449219 195.273438 C 252.507812 193.164062 257.058594 191.386719 261.941406 191.675781 C 255.691406 194.15625 249.527344 196.761719 243.648438 199.984375 C 238.019531 203.125 232.96875 207.050781 228.046875 211.101562 C 226.015625 212.796875 224.238281 214.820312 221.671875 215.8125 C 220.140625 216.394531 218.980469 217.589844 219.1875 219.039062 C 219.519531 221.3125 222.582031 220.484375 223.742188 222.304688 C 224.277344 223.128906 225.6875 222.59375 226.429688 221.640625 C 232.058594 214.121094 239.882812 209.285156 248.410156 206.101562 C 255.941406 203.289062 264.054688 201.96875 271.917969 200.066406 C 280.277344 198.082031 288.679688 196.761719 297.207031 195.644531 C 302.585938 194.941406 307.472656 196.84375 312.5625 196.015625 C 313.886719 195.808594 316.078125 196.554688 316.203125 194.445312 C 316.371094 192.253906 314.132812 192.75 312.851562 192.585938 C 297.332031 190.3125 282.554688 193.867188 267.820312 198.125 C 261.902344 199.820312 255.734375 200.726562 248.53125 202.257812 C 254.367188 197.378906 260.371094 196.058594 266.289062 194.777344 C 275.351562 192.75 284.625 192.089844 293.730469 190.105469 C 300.019531 188.742188 306.519531 190.1875 312.894531 190.933594 C 315.292969 191.222656 317.609375 190.394531 319.929688 190.890625 C 321.003906 191.140625 321.914062 190.808594 322.082031 189.941406 C 322.246094 188.90625 321.128906 188.371094 320.300781 188.289062 C 311.445312 187.296875 302.585938 184.652344 293.648438 186.839844 C 290.957031 187.503906 288.347656 187.667969 285.742188 187.625 C 281.105469 187.503906 276.96875 190.601562 271.875 189.402344 C 275.765625 185.890625 280.816406 186.179688 284.996094 185.558594 C 297.660156 183.699219 310.535156 183.492188 323.238281 186.097656 C 325.847656 186.636719 328.453125 187.421875 331.019531 188.207031 C 332.71875 188.742188 334.375 189.074219 335.285156 187.214844 C 336.195312 185.269531 334.289062 184.652344 333.132812 183.90625 C 329.902344 181.839844 326.011719 181.839844 322.414062 180.929688 C 313.96875 178.824219 305.277344 179.070312 296.75 179.152344 C 287.933594 179.238281 279.160156 181.511719 270.511719 183.660156 C 265.792969 184.816406 261.03125 185.851562 256.355469 187.171875 C 250.976562 188.703125 246.007812 191.222656 241.25 194.074219 C 232.847656 199.035156 225.644531 205.648438 217.988281 211.640625 C 217.53125 212.011719 217.160156 212.464844 216.789062 212.921875 C 213.394531 216.929688 212.316406 216.804688 210.332031 211.640625 C 206.355469 201.429688 202.796875 191.058594 198.535156 180.972656 C 194.976562 172.5 190.710938 164.316406 186.820312 156.007812 C 184.296875 150.59375 182.019531 145.058594 179.414062 139.683594 C 175.523438 131.625 173.824219 122.738281 169.851562 114.679688 C 167.988281 110.878906 169.726562 107.984375 172.210938 104.265625 C 176.597656 97.691406 181.855469 92.113281 187.195312 86.449219 C 191.25 82.152344 196.011719 78.804688 201.058594 75.996094 C 208.675781 71.777344 215.421875 66.28125 223.203125 62.273438 C 230.816406 58.347656 238.558594 54.875 246.753906 52.519531 C 252.132812 50.988281 257.597656 49.417969 263.144531 48.714844 C 267.363281 48.179688 271.875 48.550781 276.054688 49.417969 C 279.988281 50.246094 280.03125 54.875 281.105469 57.726562 C 285.867188 70.085938 291.785156 81.863281 297.414062 93.808594 C 302.710938 104.96875 307.140625 116.664062 312.976562 127.53125 C 319.101562 138.980469 324.523438 150.761719 330.234375 162.375 C 333.089844 168.160156 334.871094 174.441406 337.023438 180.558594 C 337.601562 182.210938 337.683594 184.074219 339.09375 185.394531 C 339.796875 186.054688 339.214844 188.246094 341.246094 187.335938 C 342.691406 186.636719 343.023438 184.941406 342.445312 183.867188 C 337.4375 174.402344 336.027344 163.574219 330.359375 154.230469 C 326.097656 147.207031 322.949219 139.269531 319.515625 131.667969 C 316.453125 124.929688 313.058594 118.316406 309.871094 111.621094 C 305.277344 102.074219 300.890625 92.402344 296.046875 82.980469 C 291.121094 73.433594 287.726562 63.222656 283.21875 53.550781 C 282.058594 51.113281 283.09375 47.230469 279.574219 46.359375 C 273.78125 44.957031 267.863281 43.675781 261.859375 44.871094 C 256.398438 45.988281 250.851562 46.980469 245.511719 48.511719 C 238.019531 50.660156 230.695312 53.429688 223.90625 57.273438 C 213.601562 63.140625 203.5 69.382812 193.816406 76.199219 C 186.820312 81.160156 181.109375 87.441406 175.273438 93.640625 C 172.707031 96.371094 170.597656 99.179688 169.066406 102.609375 C 167.78125 105.421875 166.128906 106.660156 162.566406 103.976562 C 156.730469 99.511719 149.199219 99.054688 142.203125 98.023438 C 135.417969 96.988281 128.628906 96.082031 121.964844 94.34375 C 117.578125 93.1875 113.109375 94.511719 108.71875 94.136719 C 98.746094 93.351562 88.855469 93.394531 79.003906 96.039062 C 74.328125 97.28125 69.316406 96.785156 64.476562 98.066406 C 55.246094 100.585938 47.09375 104.265625 41.132812 112.242188 C 38.277344 116.042969 34.46875 119.265625 30.621094 122.160156 C 27.886719 124.183594 27.265625 126.457031 28.46875 129.0625 C 31.652344 136.003906 35.089844 142.824219 38.8125 149.519531 C 42.125 155.429688 44.855469 161.628906 48.042969 167.625 C 54.625 180.0625 61.207031 192.546875 67.746094 204.984375 C 75.652344 219.945312 85.046875 234.082031 91.625 249.746094 C 92.953125 252.929688 95.433594 255.65625 97.378906 258.589844 C 98 259.542969 98.953125 259.5 99.78125 259.085938 C 105.242188 256.195312 111.121094 254.292969 116.335938 250.738281 C 122.296875 246.644531 128.960938 243.628906 135.457031 240.363281 C 144.480469 235.816406 154.414062 234.246094 163.976562 231.4375 C 167.699219 230.320312 171.796875 230.363281 175.273438 228.378906 C 175.976562 228.007812 176.972656 227.964844 177.261719 228.707031 C 177.757812 229.90625 176.597656 230.03125 175.769531 230.28125 C 167.078125 232.925781 158.179688 235.074219 149.695312 238.339844 C 139.429688 242.304688 129.621094 247.429688 120.640625 253.878906 C 117.207031 256.359375 113.4375 258.382812 110.582031 261.609375 C 109.753906 262.558594 107.769531 263.179688 108.84375 264.625 C 110.046875 266.238281 112.402344 265.367188 113.273438 264.335938 C 115.839844 261.320312 119.152344 259.457031 122.296875 257.308594 C 132.148438 250.574219 142.578125 245.242188 153.835938 241.066406 C 162.527344 237.882812 171.589844 235.898438 180.242188 232.46875 C 186.242188 230.074219 193.03125 229.246094 199.652344 230.652344 C 203.171875 231.394531 204.246094 228.460938 206.148438 226.890625 C 207.183594 226.023438 206.5625 224.660156 205.074219 224.203125 C 203.292969 223.585938 201.433594 223.128906 199.488281 222.632812 Z M 148.992188 103.5625 C 154.496094 104.015625 158.261719 108.191406 163.0625 110.050781 C 163.683594 110.296875 164.390625 111.042969 164.472656 111.664062 C 165.257812 117.777344 168.777344 122.945312 170.433594 128.691406 C 172.75 136.75 176.804688 143.980469 179.867188 151.667969 C 181.894531 156.835938 184.628906 161.714844 186.863281 166.796875 C 190.175781 174.402344 193.402344 182.089844 196.464844 189.777344 C 199.488281 197.464844 202.300781 205.234375 205.117188 212.960938 C 205.695312 214.53125 205.738281 215.898438 203.378906 216.0625 C 199.074219 216.351562 194.769531 217.300781 190.546875 216.972656 C 176.265625 215.898438 162.484375 217.964844 149.117188 222.882812 C 143.902344 224.78125 138.6875 226.808594 133.59375 229.121094 C 126.226562 232.46875 118.902344 235.777344 112.941406 241.644531 C 109.257812 245.28125 104.871094 248.257812 101.351562 252.144531 C 99.738281 253.921875 98.789062 252.761719 98.042969 251.234375 C 92.703125 240.28125 86.949219 229.578125 80.824219 219.039062 C 76.273438 211.183594 72.175781 203.085938 67.953125 195.066406 C 63.523438 186.636719 59.21875 178.203125 54.875 169.730469 C 51.3125 162.789062 47.878906 155.804688 44.238281 148.941406 C 40.84375 142.496094 37.078125 136.210938 33.722656 129.765625 C 32.359375 127.160156 30.949219 124.433594 35.460938 122.65625 C 37.738281 121.789062 39.519531 119.351562 41.296875 117.449219 C 47.628906 110.628906 55.082031 104.882812 64.1875 103.519531 C 75.941406 101.785156 87.53125 97.570312 99.738281 99.429688 C 101.476562 99.675781 103.339844 99.59375 105.078125 99.261719 C 109.546875 98.519531 113.9375 98.4375 118.40625 99.140625 C 128.546875 100.792969 138.769531 102.113281 148.992188 103.5625 Z M 118.902344 244.539062 C 118.613281 243.792969 118.324219 243.09375 118.03125 242.347656 C 140.714844 230.28125 163.601562 218.996094 190.796875 222.179688 C 165.339844 224.660156 141.210938 231.644531 118.902344 244.539062 Z M 118.902344 244.539062 " fill-opacity="1" fill-rule="nonzero"/><g clip-path="url(#41ff6232b8)"><path fill="#ffffff" d="M 17.871094 147.207031 C 20.105469 153.28125 23.460938 157.25 26.191406 161.421875 C 35.214844 175.3125 45.0625 188.660156 53.507812 202.878906 C 59.964844 213.789062 65.800781 225.15625 71.636719 236.4375 C 76.808594 246.480469 80.699219 257.226562 87.445312 266.441406 C 88.191406 267.476562 88.480469 268.921875 88.855469 270.203125 C 89.183594 271.484375 89.558594 272.601562 91.171875 272.230469 C 92.785156 271.859375 92.660156 270.492188 92.414062 269.335938 C 92.082031 267.972656 91.542969 266.648438 90.839844 264.582031 C 91.957031 265.492188 92.539062 265.90625 93.035156 266.359375 C 93.777344 267.0625 94.027344 268.714844 95.683594 267.351562 C 97.089844 266.195312 97.421875 264.996094 96.550781 263.46875 C 89.308594 250.738281 83.96875 237.015625 76.601562 224.410156 C 69.359375 212.011719 63.191406 199.035156 54.914062 187.214844 C 48.003906 177.335938 41.421875 167.128906 35.835938 156.382812 C 32.441406 149.933594 28.011719 144.105469 23.957031 138.03125 C 23.460938 137.285156 22.921875 136.789062 22.21875 137.164062 C 20.933594 137.824219 20.851562 139.148438 21.515625 140.222656 C 23.5 143.652344 25.652344 146.957031 27.679688 150.386719 C 33.019531 159.355469 38.316406 168.324219 43.65625 177.253906 C 45.023438 179.484375 46.554688 181.632812 48.085938 183.78125 C 48.539062 184.402344 49.285156 184.980469 48.582031 185.644531 C 47.589844 186.511719 47.214844 185.476562 46.59375 184.816406 C 43.367188 181.179688 41.628906 176.507812 38.816406 172.707031 C 35.214844 167.871094 31.652344 163.035156 28.261719 158.074219 C 25.570312 154.273438 22.753906 150.800781 17.871094 147.207031 Z M 68.117188 220.195312 C 72.878906 225.402344 77.636719 234.867188 77.058594 238.585938 C 74.078125 232.46875 71.097656 226.351562 68.117188 220.195312 Z M 49.90625 188 C 53.34375 191.800781 55.371094 195.4375 55.617188 197.835938 C 50.652344 192.339844 50.570312 192.132812 49.90625 188 Z M 49.90625 188 " fill-opacity="1" fill-rule="nonzero"/></g><path fill="#ffffff" d="M 345.714844 181.757812 C 343.5625 171.878906 339.753906 163.820312 337.726562 155.265625 C 335.242188 144.769531 330.898438 134.890625 326.550781 125.175781 C 320.261719 111.042969 312.769531 97.402344 305.152344 83.847656 C 300.640625 75.828125 296.214844 67.605469 292.488281 59.089844 C 291.910156 57.726562 291.203125 56.402344 290.542969 55.082031 C 290.210938 54.421875 289.839844 53.675781 288.929688 53.925781 C 287.644531 54.296875 288.226562 55.246094 288.265625 56.113281 C 288.722656 62.355469 292.238281 67.355469 295.09375 72.605469 C 298.820312 79.425781 301.550781 86.699219 305.734375 93.3125 C 309.332031 99.097656 312.726562 105.050781 315.664062 111.332031 C 319.886719 120.300781 323.859375 129.394531 328.25 138.277344 C 333.089844 148.117188 335.863281 158.65625 339.546875 168.863281 C 340.996094 172.914062 341.65625 177.5 345.714844 181.757812 Z M 345.714844 181.757812 " fill-opacity="1" fill-rule="nonzero"/><path fill="#ffffff" d="M 296.957031 59.503906 C 298.074219 61.695312 298.738281 64.214844 300.308594 65.828125 C 304.242188 69.878906 305.609375 75.167969 308.339844 79.796875 C 311.980469 85.996094 314.507812 92.652344 317.320312 99.179688 C 321.75 109.472656 326.261719 119.761719 330.398438 130.21875 C 333.171875 137.285156 336.855469 143.980469 339.132812 151.296875 C 342.070312 160.679688 345.464844 169.894531 348.695312 179.152344 C 349.066406 180.1875 349.230469 181.882812 350.847656 181.386719 C 352.296875 180.972656 352.128906 179.484375 351.589844 178.367188 C 349.109375 173.160156 348.984375 167.042969 346.5 162.085938 C 342.195312 153.40625 340.914062 143.777344 336.441406 135.21875 C 330.730469 124.308594 326.964844 112.40625 321.667969 101.328125 C 317.941406 93.519531 314.796875 85.335938 310.328125 77.730469 C 306.972656 71.945312 303.496094 66.15625 300.144531 60.332031 C 299.605469 59.378906 299.027344 58.058594 297.453125 58.46875 C 297.332031 58.511719 297.164062 59.132812 296.957031 59.503906 Z M 296.957031 59.503906 " fill-opacity="1" fill-rule="nonzero"/><path fill="#ffffff" d="M 265.957031 65.125 C 262.6875 63.097656 258.878906 63.511719 255.777344 64.546875 C 246.339844 67.726562 237.027344 71.449219 228.75 77.191406 C 221.214844 82.441406 213.3125 87.195312 206.316406 93.0625 C 200.4375 97.980469 194.933594 103.519531 190.710938 110.050781 C 189.84375 111.371094 188.972656 112.859375 189.84375 115.464844 C 210.371094 91.203125 234.5 72.976562 265.957031 65.125 Z M 265.957031 65.125 " fill-opacity="1" fill-rule="nonzero"/><path fill="#ffffff" d="M 208.425781 161.382812 C 214.71875 157.828125 219.476562 153.324219 224.320312 149.023438 C 227.796875 145.964844 231.644531 144.148438 235.621094 142.371094 C 241.746094 139.601562 248.410156 137.90625 254.535156 135.304688 C 261.984375 132.160156 269.929688 130.46875 277.132812 126.832031 C 279.242188 125.753906 281.808594 126.085938 284.210938 126.417969 C 285.535156 126.582031 286.734375 126.292969 286.902344 124.804688 C 287.109375 123.070312 285.699219 123.109375 284.5 122.945312 C 281.769531 122.53125 279.367188 123.441406 276.800781 124.351562 C 268.359375 127.367188 259.582031 129.597656 251.265625 132.863281 C 238.433594 137.90625 225.105469 142.246094 214.964844 152.207031 C 212.484375 154.605469 208.839844 156.546875 208.425781 161.382812 Z M 208.425781 161.382812 " fill-opacity="1" fill-rule="nonzero"/><path fill="#ffffff" d="M 297.953125 138.773438 C 296.75 135.550781 294.0625 135.550781 291.328125 135.882812 C 283.257812 136.875 275.230469 138.070312 267.117188 138.898438 C 264.839844 139.148438 263.390625 140.550781 261.445312 141.214844 C 252.921875 144.105469 244.269531 146.792969 236.488281 151.546875 C 228.871094 156.175781 220.925781 160.265625 214.964844 167.128906 C 214.429688 167.746094 212.691406 168.117188 213.929688 169.523438 C 215.050781 170.765625 215.960938 170.019531 216.996094 169.195312 C 220.59375 166.425781 223.65625 163.078125 227.425781 160.515625 C 233.136719 156.628906 239.097656 153.324219 245.097656 149.976562 C 251.058594 146.667969 257.722656 145.429688 263.929688 142.824219 C 268.648438 140.839844 274.609375 139.558594 280.277344 139.808594 C 285.328125 140.015625 290.335938 138.363281 295.386719 139.558594 C 296.335938 139.765625 297.246094 139.558594 297.953125 138.773438 Z M 297.953125 138.773438 " fill-opacity="1" fill-rule="nonzero"/><path fill="#ffffff" d="M 274.648438 92.773438 C 255.691406 87.898438 208.921875 115.175781 202.878906 130.878906 C 206.066406 131.085938 207.804688 128.648438 209.171875 126.789062 C 214.179688 119.722656 222.125 116.414062 228.5 111.167969 C 238.683594 102.734375 251.347656 99.429688 263.515625 95.128906 C 266.867188 93.933594 270.675781 95.335938 274.648438 92.773438 Z M 274.648438 92.773438 " fill-opacity="1" fill-rule="nonzero"/><path fill="#ffffff" d="M 303.082031 154.230469 C 292.984375 153.324219 283.507812 155.96875 274.027344 158.859375 C 266.703125 161.09375 259.167969 162.621094 252.050781 165.515625 C 242.65625 169.316406 233.632812 173.699219 225.851562 180.269531 C 225.023438 180.972656 223.824219 182.210938 224.777344 183.289062 C 225.601562 184.238281 227.050781 183.617188 227.960938 182.792969 C 235.453125 175.804688 244.726562 172.128906 253.996094 168.078125 C 260.992188 165.019531 268.480469 164.277344 275.3125 161.339844 C 280.445312 159.109375 285.867188 158.859375 291.121094 157.703125 C 294.804688 156.878906 298.820312 157.621094 302.710938 157.785156 C 304.035156 157.828125 305.195312 157.828125 305.402344 156.257812 C 305.609375 154.4375 304.324219 154.316406 303.082031 154.230469 Z M 303.082031 154.230469 " fill-opacity="1" fill-rule="nonzero"/><path fill="#ffffff" d="M 200.5625 122.078125 C 205.324219 115.132812 210.746094 109.761719 216.953125 105.378906 C 222.625 101.328125 228.582031 97.652344 234.625 94.179688 C 244.640625 88.433594 255.113281 83.847656 266.867188 83.101562 C 267.613281 83.0625 268.480469 83.101562 268.566406 82.109375 C 268.648438 80.953125 267.738281 80.707031 266.785156 80.582031 C 260.992188 79.796875 255.777344 82.027344 250.3125 83.390625 C 238.722656 86.246094 229.742188 94.015625 219.644531 99.550781 C 212.523438 103.4375 207.226562 110.089844 201.96875 116.332031 C 200.976562 117.574219 199.609375 119.144531 200.5625 122.078125 Z M 200.5625 122.078125 " fill-opacity="1" fill-rule="nonzero"/><path fill="#ffffff" d="M 235.289062 127.410156 C 240.128906 127.492188 243.027344 124.558594 246.339844 123.109375 C 256.066406 118.894531 264.964844 112.738281 275.726562 110.960938 C 276.429688 110.835938 277.382812 110.835938 277.257812 109.84375 C 277.089844 108.5625 276.179688 109.101562 275.269531 109.101562 C 268.523438 108.976562 262.8125 111.539062 257.140625 114.886719 C 250.1875 119.019531 242.449219 121.871094 235.289062 127.410156 Z M 235.289062 127.410156 " fill-opacity="1" fill-rule="nonzero"/><path fill="#ffffff" d="M 133.222656 116.539062 C 127.261719 114.84375 121.921875 116.746094 116.5 116.664062 C 100.855469 116.414062 86.039062 120.960938 71.46875 126.128906 C 66.089844 128.027344 62.242188 132.574219 57.605469 135.800781 C 57.148438 136.089844 56.320312 136.957031 57.109375 137.660156 C 57.8125 138.320312 58.886719 138.195312 59.589844 137.660156 C 61.332031 136.335938 62.984375 134.929688 64.640625 133.484375 C 70.890625 128.027344 78.175781 125.136719 86.410156 124.183594 C 94.027344 123.277344 101.144531 119.886719 108.886719 119.433594 C 116.957031 118.976562 125.070312 117.984375 133.140625 119.554688 C 136.203125 120.136719 139.265625 120.632812 141.789062 122.902344 C 142.699219 123.730469 144.273438 124.0625 145.558594 124.101562 C 147.003906 124.144531 149.363281 125.382812 149.820312 123.195312 C 150.359375 120.589844 147.625 121.582031 146.34375 121.085938 C 141.875 119.265625 137.816406 116.292969 133.222656 116.539062 Z M 133.222656 116.539062 " fill-opacity="1" fill-rule="nonzero"/><path fill="#ffffff" d="M 176.722656 190.355469 C 168.445312 189.984375 160.996094 192.050781 153.378906 193.660156 C 148.082031 194.777344 142.617188 195.933594 137.570312 197.503906 C 128.503906 200.234375 119.523438 203.582031 111.121094 208.332031 C 107.519531 210.398438 104.003906 212.425781 101.0625 215.316406 C 99.863281 216.476562 98.457031 218.167969 99.945312 219.535156 C 101.765625 221.1875 102.429688 218.996094 103.464844 217.757812 C 107.1875 213.292969 112.320312 210.566406 117.414062 208.210938 C 125.605469 204.40625 134.132812 201.472656 143.074219 199.324219 C 150.566406 197.503906 158.179688 195.851562 165.628906 193.703125 C 168.941406 192.75 172.75 193.246094 176.308594 193.289062 C 177.714844 193.332031 179 192.957031 179.082031 191.761719 C 179.125 190.066406 177.425781 190.480469 176.722656 190.355469 Z M 176.722656 190.355469 " fill-opacity="1" fill-rule="nonzero"/><path fill="#ffffff" d="M 166.375 175.476562 C 160.996094 176.136719 154.414062 176.261719 147.875 178.039062 C 139.308594 180.351562 130.988281 183.203125 122.917969 186.675781 C 113.4375 190.769531 103.628906 194.324219 95.722656 201.390625 C 94.8125 202.214844 93.863281 203.289062 94.773438 204.40625 C 95.722656 205.605469 96.964844 204.863281 97.875 203.953125 C 106.195312 195.894531 117.246094 192.875 127.179688 187.75 C 136.78125 182.792969 147.335938 181.222656 157.683594 178.863281 C 161.285156 178.039062 165.09375 178.535156 168.777344 179.277344 C 170.226562 179.566406 172.914062 180.683594 173.328125 178.328125 C 173.785156 175.683594 170.679688 176.796875 169.3125 175.929688 C 168.898438 175.640625 168.195312 175.765625 166.375 175.476562 Z M 166.375 175.476562 " fill-opacity="1" fill-rule="nonzero"/><path fill="#ffffff" d="M 131.691406 133.9375 C 138.023438 137.328125 145.433594 135.136719 151.601562 138.484375 C 152.34375 138.898438 153.089844 138.445312 153.460938 137.742188 C 153.917969 136.875 153.339844 136.5 152.632812 136.046875 C 150.273438 134.476562 147.875 134.433594 145.019531 134.105469 C 138.894531 133.441406 132.726562 133.195312 126.601562 132.410156 C 122.214844 131.832031 117.824219 132.492188 113.4375 133.484375 C 107.894531 134.722656 102.097656 134.972656 96.59375 136.335938 C 88.027344 138.402344 79.914062 141.625 73.621094 148.238281 C 71.59375 150.347656 69.484375 152.371094 66.546875 153.242188 C 65.054688 153.652344 64.601562 155.015625 64.308594 156.339844 C 64.226562 156.628906 64.683594 157.375 64.847656 157.375 C 66.171875 157.332031 67.371094 156.917969 68.367188 155.84375 C 79.128906 144.476562 92.496094 138.898438 107.933594 136.5 C 113.023438 135.714844 118.445312 136.128906 123.539062 134.0625 C 125.898438 132.988281 129 135.015625 131.691406 133.9375 Z M 131.691406 133.9375 " fill-opacity="1" fill-rule="nonzero"/><path fill="#ffffff" d="M 163.808594 163.902344 C 161.492188 161.175781 158.71875 161.339844 155.40625 161.09375 C 145.019531 160.265625 135.085938 162.457031 125.070312 164.398438 C 116.667969 166.011719 109.050781 169.9375 101.351562 173.535156 C 94.980469 176.550781 89.183594 180.433594 83.679688 184.816406 C 82.726562 185.558594 81.402344 186.34375 82.4375 187.625 C 83.058594 188.414062 84.382812 188 85.171875 187.214844 C 92.746094 179.734375 102.265625 175.394531 111.785156 171.09375 C 122.089844 166.425781 133.097656 164.9375 144.230469 163.945312 C 147.957031 163.613281 151.722656 164.152344 155.40625 163.324219 C 156.402344 163.117188 157.640625 163.242188 158.304688 164.152344 C 160.332031 167.003906 161.988281 165.0625 163.808594 163.902344 Z M 163.808594 163.902344 " fill-opacity="1" fill-rule="nonzero"/><path fill="#ffffff" d="M 81.488281 166.425781 C 85.085938 166.753906 86.703125 163.863281 88.894531 162.582031 C 99.117188 156.628906 109.921875 153.613281 121.757812 152.746094 C 126.519531 152.371094 131.441406 151.628906 136.285156 150.761719 C 139.761719 150.140625 143.15625 149.894531 146.425781 152.207031 C 148.742188 153.820312 151.515625 153.15625 154.664062 151.585938 C 148.496094 149.230469 142.867188 148.40625 136.90625 148.613281 C 127.882812 148.941406 119.027344 150.554688 110.292969 152.371094 C 100.402344 154.4375 90.839844 158.035156 82.6875 164.398438 C 82.191406 164.730469 82.023438 165.515625 81.488281 166.425781 Z M 81.488281 166.425781 " fill-opacity="1" fill-rule="nonzero"/><g clip-path="url(#f57a582f70)"><g clip-path="url(#a44c0f1efd)"><path fill="#c02e09" d="M 221.234375 138.917969 L 419.316406 138.917969 L 419.316406 337 L 221.234375 337 Z M 221.234375 138.917969 " fill-opacity="1" fill-rule="nonzero"/></g></g><g clip-path="url(#9453ef39c7)"><path fill="#ffffff" d="M 429.816406 127.082031 C 433.488281 121.820312 437.296875 113.742188 436.253906 106.117188 C 434.894531 96.363281 419.929688 80.480469 409.859375 80.480469 C 409.136719 80.480469 408.410156 80.570312 407.773438 80.753906 C 403.464844 81.976562 398.839844 87.921875 396.117188 93.320312 C 392.492188 89.691406 389.632812 86.832031 388.320312 85.472656 C 388.136719 85.246094 387.910156 85.019531 387.730469 84.792969 C 385.960938 83.023438 383.511719 82.113281 380.382812 82.113281 C 372.535156 82.113281 361.46875 88.058594 352.261719 97.269531 C 345.144531 104.394531 340.019531 112.5625 337.839844 120.367188 C 336.933594 123.496094 336.527344 126.3125 336.4375 128.851562 C 327.863281 136.429688 322.242188 147.003906 319.699219 160.433594 C 312.898438 159.707031 305.777344 159.300781 298.429688 159.300781 C 277.34375 159.300781 257.976562 162.523438 242.738281 167.832031 C 242.601562 167.875 242.421875 167.921875 242.285156 168.011719 C 242.011719 168.105469 241.742188 168.195312 241.421875 168.332031 C 241.105469 168.464844 240.789062 168.558594 240.472656 168.695312 C 240.378906 168.738281 240.289062 168.738281 240.199219 168.785156 C 238.746094 169.328125 237.296875 169.917969 235.890625 170.507812 C 222.921875 176.089844 214.394531 183.125 211.175781 190.792969 C 211.128906 190.882812 211.082031 190.972656 211.039062 191.0625 C 210.992188 191.199219 210.945312 191.335938 210.855469 191.472656 C 210.765625 191.652344 210.71875 191.882812 210.628906 192.0625 C 210.628906 192.109375 210.585938 192.152344 210.585938 192.199219 C 209.949219 194.015625 209.632812 195.875 209.632812 197.78125 C 209.632812 197.78125 209.632812 197.824219 209.632812 197.824219 C 209.632812 197.824219 209.632812 197.871094 209.632812 197.871094 C 209.632812 198.144531 209.632812 198.460938 209.675781 198.734375 L 209.632812 198.734375 C 209.632812 208.671875 211.175781 218.246094 214.210938 227.046875 C 214.210938 227.046875 214.210938 227.09375 214.210938 227.09375 C 218.113281 238.527344 224.417969 248.738281 232.851562 257.042969 C 248.863281 272.832031 271.539062 281.183594 298.386719 281.183594 C 325.234375 281.183594 347.910156 272.832031 363.917969 257.042969 C 372.355469 248.738281 378.660156 238.484375 382.558594 227.09375 C 382.558594 227.09375 382.558594 227.046875 382.558594 227.046875 C 385.550781 218.246094 387.140625 208.671875 387.140625 198.734375 L 387.09375 198.734375 C 387.09375 198.460938 387.140625 198.144531 387.140625 197.871094 C 387.140625 197.871094 387.140625 197.824219 387.140625 197.824219 C 387.140625 197.824219 387.140625 197.78125 387.140625 197.78125 C 387.140625 195.875 386.820312 194.015625 386.1875 192.199219 C 386.1875 192.152344 386.140625 192.109375 386.140625 192.0625 C 386.097656 191.882812 386.003906 191.652344 385.914062 191.472656 C 385.871094 191.335938 385.824219 191.199219 385.734375 191.0625 C 385.6875 190.972656 385.644531 190.882812 385.597656 190.792969 C 382.378906 183.125 373.851562 176.089844 360.878906 170.507812 C 359.472656 169.917969 358.023438 169.328125 356.570312 168.785156 C 356.480469 168.738281 356.4375 168.738281 356.34375 168.695312 C 356.027344 168.558594 355.664062 168.464844 355.347656 168.332031 C 355.074219 168.238281 354.804688 168.148438 354.53125 168.011719 C 354.394531 167.96875 354.214844 167.921875 354.078125 167.832031 C 350.085938 166.425781 345.867188 165.199219 341.332031 164.109375 C 341.515625 155.714844 342.695312 148.636719 344.917969 143.011719 C 345.007812 143.011719 345.144531 143.011719 345.234375 143.011719 C 348.453125 143.011719 350.765625 143.644531 352.035156 144.914062 L 383.554688 176.453125 C 385.234375 178.132812 387.820312 178.992188 390.996094 178.992188 C 399.203125 178.992188 409.679688 173.414062 419.023438 164.019531 C 432.402344 150.632812 437.84375 135.023438 431.402344 128.535156 C 431.085938 128.351562 430.585938 127.808594 429.816406 127.082031 Z M 424.238281 121.5 C 418.160156 115.464844 409.453125 106.707031 402.015625 99.265625 C 404.144531 94.910156 407.140625 90.417969 409.679688 89.554688 C 410.085938 89.417969 410.585938 89.328125 411.085938 89.328125 C 417.796875 89.328125 428.136719 101.035156 428.773438 107.660156 C 429.179688 112.425781 426.730469 117.691406 424.238281 121.5 Z M 424.238281 121.5 " fill-opacity="1" fill-rule="nonzero"/></g><path fill="#c02e09" d="M 298.386719 165.0625 C 305.460938 165.0625 312.261719 165.425781 318.792969 166.152344 C 318.296875 170.417969 318.023438 174.910156 318.066406 179.675781 C 308.089844 179.945312 300.515625 183.214844 294.394531 185.847656 C 290.449219 187.570312 287.046875 189.023438 284.054688 189.203125 C 280.835938 189.386719 277.933594 188.886719 274.847656 188.339844 C 272.171875 187.886719 269.40625 187.433594 266.457031 187.433594 C 259.792969 187.433594 253.53125 189.792969 246.140625 195.011719 C 240.472656 199.003906 236.027344 206.628906 233.941406 215.203125 C 224.78125 210.03125 219.382812 203.679688 219.382812 196.871094 C 219.335938 179.3125 254.800781 165.0625 298.386719 165.0625 Z M 341.378906 170.191406 C 341.515625 174.683594 341.921875 179.539062 342.605469 184.667969 C 353.988281 189.703125 361.96875 198.007812 365.1875 208.488281 C 365.640625 209.988281 366.003906 211.53125 366.277344 213.070312 C 373.398438 208.308594 377.480469 202.726562 377.480469 196.78125 C 377.480469 185.664062 363.101562 175.863281 341.378906 170.191406 Z M 341.378906 170.191406 " fill-opacity="1" fill-rule="nonzero"/><path fill="#ffffff" d="M 414.804688 159.890625 C 407.230469 167.515625 398.75 172.050781 392.128906 172.050781 C 389.769531 172.050781 387.863281 171.417969 386.6875 170.234375 L 362.242188 145.777344 C 356.933594 140.46875 353.488281 137.339844 348 137.066406 C 348.226562 136.746094 348.453125 136.429688 348.679688 136.113281 L 352.808594 134.207031 C 354.257812 134.296875 355.847656 134.570312 357.523438 135.023438 C 358.839844 135.386719 360.019531 135.839844 361.242188 136.292969 C 364.417969 137.519531 367.730469 138.789062 374.078125 138.789062 C 376.027344 138.789062 378.25 138.652344 380.609375 138.425781 C 387.503906 137.699219 393.625 134.570312 398.25 130.484375 L 401.878906 134.160156 L 398.386719 137.65625 C 398.113281 137.929688 398.113281 138.382812 398.386719 138.699219 C 398.523438 138.835938 398.703125 138.925781 398.886719 138.925781 C 399.066406 138.925781 399.25 138.835938 399.382812 138.699219 L 402.875 135.207031 L 409.042969 141.421875 L 405.550781 144.914062 C 405.28125 145.1875 405.28125 145.640625 405.550781 145.960938 C 405.6875 146.097656 405.871094 146.1875 406.050781 146.1875 C 406.230469 146.1875 406.414062 146.097656 406.550781 145.960938 L 409.996094 142.511719 L 416.164062 148.683594 L 412.71875 152.132812 C 412.445312 152.402344 412.445312 152.855469 412.71875 153.175781 C 412.855469 153.3125 413.035156 153.402344 413.214844 153.402344 C 413.398438 153.402344 413.578125 153.3125 413.714844 153.175781 L 417.660156 149.226562 C 417.84375 149.046875 417.886719 148.816406 417.84375 148.589844 C 417.84375 148.546875 417.84375 148.5 417.796875 148.457031 C 417.796875 148.457031 417.796875 148.410156 417.796875 148.410156 C 417.796875 148.363281 417.75 148.363281 417.75 148.320312 C 417.75 148.320312 417.707031 148.273438 417.707031 148.273438 C 417.707031 148.273438 417.660156 148.226562 417.660156 148.226562 L 410.632812 141.195312 C 410.585938 141.148438 410.539062 141.058594 410.496094 141.011719 C 410.449219 140.96875 410.359375 140.921875 410.3125 140.878906 L 403.375 133.933594 C 403.328125 133.890625 403.328125 133.84375 403.285156 133.796875 C 403.238281 133.753906 403.195312 133.707031 403.148438 133.707031 L 399.15625 129.714844 C 402.46875 126.539062 404.871094 122.90625 406.097656 119.460938 C 406.820312 117.371094 407.09375 115.421875 406.914062 113.789062 L 425.054688 131.9375 C 430.085938 136.613281 425.417969 149.273438 414.804688 159.890625 Z M 357.886719 133.617188 C 359.292969 133.980469 360.519531 134.480469 361.742188 134.933594 C 364.824219 136.113281 368 137.339844 374.078125 137.339844 C 375.984375 137.339844 378.160156 137.203125 380.472656 136.976562 C 387.046875 136.292969 392.855469 133.300781 397.207031 129.441406 L 395.757812 127.992188 L 392.265625 131.484375 C 392.128906 131.621094 391.945312 131.710938 391.765625 131.710938 C 391.582031 131.710938 391.402344 131.621094 391.265625 131.484375 C 390.996094 131.210938 390.996094 130.757812 391.265625 130.441406 L 394.757812 126.945312 L 388.589844 120.730469 L 385.097656 124.222656 C 385.007812 124.316406 384.960938 124.359375 384.871094 124.40625 C 384.78125 124.449219 384.691406 124.449219 384.597656 124.449219 C 384.417969 124.449219 384.238281 124.359375 384.101562 124.222656 C 383.828125 123.953125 383.828125 123.496094 384.101562 123.179688 L 388.089844 119.1875 C 388.136719 119.140625 388.183594 119.140625 388.183594 119.097656 C 388.226562 119.097656 388.226562 119.050781 388.273438 119.050781 C 388.273438 119.050781 388.320312 119.050781 388.320312 119.003906 C 388.363281 119.003906 388.363281 119.003906 388.410156 118.960938 C 388.410156 118.960938 388.453125 118.960938 388.453125 118.960938 C 388.5 118.960938 388.546875 118.960938 388.589844 118.960938 C 388.636719 118.960938 388.679688 118.960938 388.726562 118.960938 C 388.726562 118.960938 388.773438 118.960938 388.773438 118.960938 C 388.816406 118.960938 388.816406 118.960938 388.863281 119.003906 C 388.863281 119.003906 388.90625 119.003906 388.90625 119.050781 C 388.953125 119.050781 388.953125 119.097656 389 119.097656 C 389.042969 119.097656 389.042969 119.140625 389.089844 119.1875 C 389.089844 119.1875 389.089844 119.1875 389.132812 119.1875 L 396.253906 126.3125 C 396.300781 126.355469 396.34375 126.355469 396.34375 126.402344 C 396.390625 126.449219 396.390625 126.449219 396.4375 126.492188 L 398.339844 128.398438 C 401.46875 125.402344 403.738281 121.957031 404.917969 118.6875 C 406.140625 115.238281 405.914062 112.335938 404.28125 110.703125 C 402.96875 109.386719 401.242188 108.75 399.019531 108.75 C 394.894531 108.75 389.679688 110.972656 384.597656 113.105469 C 383.101562 113.742188 381.5625 114.378906 380.0625 114.96875 C 378.613281 116.738281 377.027344 118.507812 375.300781 120.230469 C 368.226562 127.308594 361.695312 130.804688 355.753906 133.074219 C 356.4375 133.300781 357.160156 133.433594 357.886719 133.617188 Z M 363.78125 208.941406 C 364.28125 210.578125 364.644531 212.253906 364.917969 213.980469 C 350.8125 222.738281 326.277344 228.589844 298.386719 228.589844 C 272.582031 228.589844 249.632812 223.601562 235.210938 215.886719 C 237.207031 207.535156 241.46875 200.050781 246.957031 196.191406 C 254.078125 191.15625 260.109375 188.886719 266.457031 188.886719 C 269.316406 188.886719 272.035156 189.339844 274.621094 189.792969 C 277.660156 190.292969 280.742188 190.835938 284.144531 190.65625 C 287.410156 190.472656 290.949219 188.976562 295.03125 187.207031 C 301.015625 184.621094 308.410156 181.445312 318.113281 181.171875 C 318.113281 181.988281 318.160156 182.851562 318.203125 183.714844 C 318.203125 184.121094 318.566406 184.4375 318.976562 184.394531 C 319.382812 184.394531 319.699219 184.03125 319.65625 183.621094 C 317.613281 128.714844 350.8125 118.644531 370.992188 117.507812 C 368.773438 120.050781 363.375 125.675781 356.800781 128.125 C 348.183594 131.394531 342.785156 139.832031 340.746094 153.175781 C 338.976562 164.65625 339.792969 179.855469 343.101562 197.097656 C 343.148438 197.460938 343.464844 197.6875 343.828125 197.6875 C 343.875 197.6875 343.917969 197.6875 343.964844 197.6875 C 344.371094 197.597656 344.597656 197.234375 344.554688 196.828125 C 343.875 193.242188 343.285156 189.75 342.832031 186.390625 C 353.351562 191.292969 360.789062 199.097656 363.78125 208.941406 Z M 312.21875 219.289062 C 312.171875 219.289062 312.128906 219.242188 312.128906 219.242188 C 312.082031 219.199219 311.992188 219.152344 311.945312 219.105469 C 309.585938 217.246094 306.230469 216.65625 303.101562 217.566406 C 302.46875 217.746094 301.785156 218.019531 301.199219 218.246094 C 299.472656 218.925781 297.796875 219.5625 296.300781 219.015625 C 295.03125 218.5625 294.257812 217.292969 293.398438 215.929688 C 292.761719 214.886719 292.082031 213.796875 291.128906 212.9375 C 289.042969 211.121094 286.003906 210.667969 282.011719 211.621094 C 281.105469 211.800781 280.246094 212.074219 279.335938 212.347656 C 277.34375 212.9375 275.4375 213.480469 273.488281 213.390625 C 269.269531 213.207031 265.371094 209.625 264.78125 205.496094 C 264.191406 201.320312 266.910156 196.828125 270.949219 195.464844 C 271.3125 195.328125 271.539062 194.921875 271.402344 194.558594 C 271.265625 194.195312 270.855469 193.96875 270.496094 194.105469 C 265.777344 195.691406 262.648438 200.773438 263.375 205.722656 C 264.101562 210.621094 268.5 214.660156 273.488281 214.886719 C 275.664062 214.976562 277.75 214.386719 279.792969 213.796875 C 280.652344 213.570312 281.515625 213.300781 282.375 213.117188 C 285.867188 212.300781 288.5 212.664062 290.175781 214.117188 C 290.949219 214.796875 291.582031 215.792969 292.171875 216.746094 C 293.078125 218.246094 294.078125 219.789062 295.800781 220.46875 C 296.390625 220.695312 296.980469 220.785156 297.523438 220.785156 C 298.976562 220.785156 300.382812 220.242188 301.742188 219.699219 C 302.375 219.46875 302.964844 219.199219 303.554688 219.0625 C 306.230469 218.289062 309.132812 218.789062 311.128906 220.378906 C 311.175781 220.421875 311.21875 220.421875 311.265625 220.46875 C 311.3125 220.46875 311.355469 220.515625 311.355469 220.515625 C 311.445312 220.558594 311.492188 220.605469 311.628906 220.648438 C 311.992188 220.832031 312.445312 220.695312 312.625 220.332031 C 312.808594 219.96875 312.582031 219.46875 312.21875 219.289062 Z M 328.5 195.148438 C 324.960938 188.660156 316.4375 186.980469 310.539062 189.113281 C 308.816406 189.75 307.320312 190.792969 305.867188 191.835938 C 304.101562 193.0625 302.46875 194.242188 300.515625 194.648438 C 299.972656 194.738281 298.976562 194.785156 297.933594 194.785156 C 294.9375 194.832031 291.265625 194.832031 289.632812 196.871094 C 287.863281 199.140625 288.726562 202.410156 290.585938 204.269531 C 292.445312 206.175781 295.164062 208.351562 299.246094 208.351562 C 300.925781 208.351562 302.875 207.988281 305.097656 207.035156 C 305.777344 206.765625 306.503906 206.355469 307.320312 205.949219 C 309.132812 204.996094 311.355469 203.859375 312.808594 204.085938 C 313.351562 204.179688 313.894531 204.449219 314.484375 204.769531 C 314.984375 205.039062 315.484375 205.265625 316.027344 205.449219 C 318.203125 206.085938 320.609375 205.132812 321.605469 203.179688 C 322.148438 202.183594 322.285156 200.867188 321.878906 199.730469 C 321.558594 198.6875 320.835938 197.871094 319.929688 197.460938 C 319.566406 197.28125 319.113281 197.460938 318.976562 197.824219 C 318.792969 198.1875 318.976562 198.640625 319.339844 198.777344 C 319.882812 199.050781 320.289062 199.550781 320.515625 200.183594 C 320.789062 200.957031 320.699219 201.820312 320.335938 202.5 C 319.65625 203.816406 317.933594 204.496094 316.480469 204.042969 C 316.074219 203.90625 315.621094 203.679688 315.164062 203.453125 C 314.484375 203.089844 313.804688 202.726562 312.988281 202.636719 C 311.085938 202.316406 308.726562 203.589844 306.59375 204.632812 C 305.824219 205.039062 305.097656 205.402344 304.460938 205.675781 C 297.839844 208.445312 294.078125 205.8125 291.539062 203.226562 C 290.175781 201.863281 289.496094 199.367188 290.722656 197.78125 C 291.898438 196.28125 295.347656 196.238281 297.886719 196.238281 C 299.066406 196.238281 300.0625 196.238281 300.742188 196.054688 C 303.011719 195.601562 304.871094 194.285156 306.683594 193.015625 C 308.136719 192.015625 309.496094 191.019531 310.992188 190.472656 C 315.4375 188.839844 323.691406 189.429688 327.183594 195.828125 C 328.453125 198.144531 328.410156 200.957031 328.273438 203.90625 C 328.273438 204.316406 328.542969 204.632812 328.953125 204.675781 C 329.359375 204.675781 329.679688 204.40625 329.722656 203.996094 C 329.90625 200.867188 329.949219 197.824219 328.5 195.148438 Z M 328.5 195.148438 " fill-opacity="1" fill-rule="nonzero"/><path fill="#c02e09" d="M 400.878906 98.175781 C 399.566406 96.863281 398.339844 95.636719 397.160156 94.457031 C 399.835938 88.964844 404.371094 83.25 408.136719 82.203125 C 408.679688 82.070312 409.226562 81.976562 409.859375 81.976562 C 419.15625 81.976562 433.535156 97.316406 434.804688 106.34375 C 435.800781 113.46875 432.265625 121.046875 428.773438 126.085938 C 427.820312 125.132812 426.59375 123.953125 425.28125 122.589844 C 428 118.550781 430.675781 112.878906 430.222656 107.570312 C 429.542969 100.265625 418.523438 87.878906 411.085938 87.878906 C 410.40625 87.878906 409.816406 87.96875 409.226562 88.148438 C 406.097656 89.191406 403.011719 93.957031 400.878906 98.175781 Z M 298.386719 249.871094 C 262.238281 249.871094 228.90625 240.433594 215.4375 226.367188 C 215.390625 226.324219 215.390625 226.324219 215.347656 226.277344 C 215.664062 227.320312 216.027344 228.320312 216.433594 229.316406 C 231.355469 242.75 263.011719 251.28125 298.386719 251.28125 C 333.851562 251.28125 365.460938 242.703125 380.335938 229.316406 C 380.699219 228.320312 381.0625 227.273438 381.425781 226.230469 C 381.378906 226.277344 381.378906 226.277344 381.335938 226.324219 C 367.730469 240.660156 335.164062 249.871094 298.386719 249.871094 Z M 371.945312 115.964844 C 372.035156 115.964844 372.128906 115.921875 372.21875 115.921875 C 380.292969 107.707031 385.507812 98.40625 385.460938 92.097656 C 385.460938 90.054688 384.917969 88.511719 383.828125 87.421875 C 382.785156 86.335938 381.242188 85.835938 379.246094 85.835938 C 372.808594 85.835938 363.238281 91.28125 354.804688 99.71875 C 348.542969 105.980469 343.738281 113.242188 341.695312 119.640625 C 340.972656 121.910156 340.515625 123.996094 340.289062 125.902344 C 340.335938 125.859375 340.425781 125.8125 340.472656 125.765625 C 352.945312 117.007812 366.6875 116.28125 371.222656 116.054688 C 371.449219 116.011719 371.71875 115.964844 371.945312 115.964844 Z M 411.085938 89.328125 C 410.585938 89.328125 410.085938 89.417969 409.679688 89.554688 C 407.140625 90.417969 404.101562 94.910156 402.015625 99.265625 C 409.453125 106.707031 418.207031 115.464844 424.238281 121.5 C 426.777344 117.691406 429.226562 112.425781 428.773438 107.707031 C 428.136719 101.035156 417.796875 89.328125 411.085938 89.328125 Z M 340.289062 119.140625 C 342.421875 112.425781 347.230469 105.164062 353.761719 98.632812 C 362.421875 89.964844 372.445312 84.335938 379.246094 84.335938 C 381.652344 84.335938 383.511719 85.019531 384.871094 86.378906 C 386.230469 87.742188 386.957031 89.648438 386.957031 92.097656 C 386.957031 98.765625 381.652344 108.433594 373.351562 116.871094 C 373.351562 116.917969 373.308594 116.964844 373.261719 117.007812 C 373.261719 117.054688 373.214844 117.054688 373.214844 117.101562 C 372.582031 117.917969 366.050781 126.175781 357.34375 129.488281 C 355.167969 130.304688 353.171875 131.53125 351.449219 133.117188 C 358.386719 130.941406 365.824219 127.761719 374.304688 119.324219 C 386.914062 106.707031 392.445312 91.734375 386.6875 85.878906 C 385.1875 84.382812 383.058594 83.613281 380.335938 83.613281 C 372.851562 83.613281 362.195312 89.375 353.261719 98.359375 C 346.324219 105.300781 341.332031 113.289062 339.203125 120.820312 C 338.523438 123.269531 338.113281 125.539062 337.933594 127.628906 C 338.160156 127.445312 338.386719 127.265625 338.613281 127.082031 C 338.839844 124.722656 339.339844 122.089844 340.289062 119.140625 Z M 352.71875 134.207031 C 351.71875 134.523438 350.765625 134.84375 349.816406 135.113281 C 349.679688 135.160156 349.496094 135.207031 349.316406 135.296875 C 349.089844 135.566406 348.863281 135.839844 348.679688 136.113281 L 352.808594 134.207031 C 352.761719 134.207031 352.761719 134.207031 352.71875 134.207031 Z M 341.289062 165.609375 C 341.289062 166.605469 341.289062 167.605469 341.289062 168.648438 C 346.230469 169.917969 350.8125 171.417969 355.074219 173.140625 C 370.449219 179.402344 378.929688 187.796875 378.929688 196.78125 C 378.929688 215.113281 342.785156 229.996094 298.386719 229.996094 C 276.980469 229.996094 256.84375 226.59375 241.695312 220.421875 C 226.320312 214.160156 217.839844 205.765625 217.839844 196.78125 C 217.839844 187.796875 226.320312 179.402344 241.695312 173.140625 C 256.84375 166.96875 276.980469 163.566406 298.386719 163.566406 C 305.414062 163.566406 312.355469 163.929688 318.976562 164.65625 C 319.113281 163.703125 319.246094 162.792969 319.429688 161.886719 C 312.671875 161.160156 305.640625 160.796875 298.386719 160.796875 C 250.265625 160.796875 211.128906 177.40625 211.128906 197.824219 C 211.128906 200.683594 211.898438 203.453125 213.351562 206.128906 C 213.394531 206.21875 213.441406 206.3125 213.488281 206.402344 C 213.578125 206.582031 213.667969 206.765625 213.804688 206.945312 C 219.609375 216.519531 234.304688 224.644531 253.851562 229.636719 C 253.941406 229.679688 254.078125 229.679688 254.167969 229.726562 C 254.53125 229.816406 254.847656 229.90625 255.210938 229.996094 C 267.953125 233.082031 282.695312 234.851562 298.339844 234.851562 C 314.03125 234.851562 328.769531 233.082031 341.515625 229.996094 C 341.832031 229.90625 342.195312 229.816406 342.511719 229.769531 C 342.648438 229.726562 342.738281 229.726562 342.875 229.679688 C 362.378906 224.6875 377.117188 216.566406 382.921875 206.992188 C 383.058594 206.808594 383.148438 206.582031 383.285156 206.355469 C 383.328125 206.3125 383.375 206.21875 383.375 206.175781 C 384.828125 203.496094 385.597656 200.730469 385.597656 197.824219 C 385.644531 184.03125 367.773438 172.007812 341.289062 165.609375 Z M 390.085938 89.417969 C 391.402344 95.410156 388.363281 104.121094 381.878906 112.742188 C 382.605469 112.425781 383.285156 112.152344 384.011719 111.835938 C 389.226562 109.613281 394.578125 107.34375 398.976562 107.34375 C 401.605469 107.34375 403.648438 108.113281 405.234375 109.703125 L 426.1875 130.667969 C 431.765625 136.25 427.183594 149.5 415.847656 160.886719 C 408 168.785156 399.15625 173.503906 392.128906 173.503906 C 392.128906 173.503906 392.128906 173.503906 392.082031 173.503906 C 389.316406 173.503906 387.09375 172.730469 385.597656 171.28125 L 361.152344 146.820312 C 355.710938 141.375 352.535156 138.472656 347.046875 138.519531 C 346.457031 139.46875 345.960938 140.515625 345.460938 141.601562 C 349 141.648438 351.449219 142.421875 352.988281 143.917969 L 384.507812 175.453125 C 385.914062 176.863281 388.136719 177.585938 390.902344 177.585938 C 398.703125 177.585938 408.816406 172.140625 417.933594 163.066406 C 430.539062 150.453125 436.074219 135.476562 430.3125 129.625 C 427.546875 126.902344 400.109375 99.492188 390.085938 89.417969 Z M 257.933594 198.777344 C 258.25 198.597656 258.339844 198.144531 258.160156 197.824219 C 257.976562 197.507812 257.523438 197.417969 257.207031 197.597656 C 255.074219 198.914062 254.574219 201.410156 254.484375 202.773438 C 254.214844 206.539062 255.617188 208.488281 257.386719 210.984375 C 257.75 211.53125 258.160156 212.074219 258.566406 212.664062 C 258.703125 212.84375 258.929688 212.980469 259.15625 212.980469 C 259.292969 212.980469 259.429688 212.9375 259.519531 212.84375 C 259.835938 212.617188 259.925781 212.210938 259.699219 211.890625 C 259.292969 211.257812 258.882812 210.710938 258.519531 210.167969 C 256.84375 207.808594 255.617188 206.085938 255.84375 202.816406 C 255.9375 202 256.253906 199.820312 257.933594 198.777344 Z M 299.019531 222.375 C 296.753906 223.28125 293.851562 222.648438 291.039062 221.828125 C 290.675781 221.738281 290.3125 221.921875 290.175781 222.285156 C 290.085938 222.648438 290.269531 223.011719 290.628906 223.144531 C 292.582031 223.691406 294.53125 224.191406 296.433594 224.191406 C 297.523438 224.191406 298.566406 224.054688 299.519531 223.644531 C 299.882812 223.507812 300.0625 223.101562 299.925781 222.738281 C 299.746094 222.375 299.382812 222.238281 299.019531 222.375 Z M 305.507812 210.257812 C 308.226562 209.304688 310.628906 208.445312 313.351562 210.167969 C 313.667969 210.347656 314.078125 210.257812 314.304688 209.941406 C 314.484375 209.625 314.394531 209.214844 314.078125 208.988281 C 310.765625 206.945312 307.863281 207.988281 305.050781 208.988281 C 303.417969 209.578125 301.921875 210.121094 300.289062 210.121094 C 299.925781 210.121094 299.609375 210.441406 299.609375 210.804688 C 299.609375 211.167969 299.882812 211.484375 300.289062 211.484375 C 302.148438 211.4375 303.875 210.847656 305.507812 210.257812 Z M 326.324219 154.582031 C 326.367188 154.582031 326.414062 154.582031 326.457031 154.582031 C 326.777344 154.582031 327.09375 154.355469 327.140625 154.035156 C 328.542969 146.550781 332.128906 141.648438 339.382812 137.246094 C 339.703125 137.066406 339.792969 136.613281 339.609375 136.292969 C 339.429688 135.976562 338.976562 135.886719 338.65625 136.066406 C 330.992188 140.695312 327.273438 145.824219 325.777344 153.765625 C 325.734375 154.171875 325.960938 154.535156 326.324219 154.582031 Z M 326.324219 154.582031 " fill-opacity="1" fill-rule="nonzero"/></svg>